<?xml version="1.0" encoding="utf-8"?>
<!-- Generator: Adobe Illustrator 16.0.0, SVG Export Plug-In . SVG Version: 6.00 Build 0)  -->
<!DOCTYPE svg PUBLIC "-//W3C//DTD SVG 1.1//EN" "http://www.w3.org/Graphics/SVG/1.1/DTD/svg11.dtd">
<svg version="1.1" id="Layer_1" xmlns="http://www.w3.org/2000/svg" xmlns:xlink="http://www.w3.org/1999/xlink" x="0px" y="0px"
	 width="576px" height="432px" viewBox="0 0 576 432" enable-background="new 0 0 576 432" xml:space="preserve">
<g>
	<path fill="#F7941E" d="M235.989,325.26v3.006h-1.758v-8.531h3.328c0.641,0,1.204,0.117,1.69,0.352s0.86,0.567,1.122,0.999
		s0.393,0.923,0.393,1.474c0,0.836-0.286,1.495-0.858,1.978s-1.364,0.724-2.376,0.724H235.989z M235.989,323.836h1.57
		c0.465,0,0.819-0.109,1.063-0.328s0.366-0.531,0.366-0.938c0-0.418-0.123-0.756-0.369-1.014s-0.586-0.391-1.02-0.398h-1.611
		V323.836z"/>
	<path fill="#F7941E" d="M245.13,325.143h-1.4v3.123h-1.758v-8.531h3.17c1.008,0,1.785,0.225,2.332,0.674s0.82,1.084,0.82,1.904
		c0,0.582-0.126,1.067-0.378,1.456s-0.634,0.698-1.146,0.929l1.846,3.486v0.082h-1.887L245.13,325.143z M243.729,323.719h1.418
		c0.441,0,0.783-0.112,1.025-0.337s0.363-0.534,0.363-0.929c0-0.402-0.114-0.719-0.343-0.949s-0.579-0.346-1.052-0.346h-1.412
		V323.719z"/>
	<path fill="#F7941E" d="M256.638,324.193c0,0.84-0.148,1.576-0.445,2.209s-0.722,1.121-1.274,1.465s-1.187,0.516-1.901,0.516
		c-0.707,0-1.338-0.17-1.893-0.51s-0.984-0.825-1.289-1.456s-0.459-1.356-0.463-2.177v-0.422c0-0.84,0.151-1.579,0.454-2.218
		s0.73-1.129,1.283-1.471s1.185-0.513,1.896-0.513s1.343,0.171,1.896,0.513s0.98,0.832,1.283,1.471s0.454,1.376,0.454,2.212V324.193
		z M254.856,323.807c0-0.895-0.16-1.574-0.48-2.039s-0.777-0.697-1.371-0.697c-0.59,0-1.045,0.229-1.365,0.688
		s-0.482,1.132-0.486,2.019v0.416c0,0.871,0.16,1.547,0.48,2.027s0.781,0.721,1.383,0.721c0.59,0,1.043-0.231,1.359-0.694
		s0.477-1.138,0.48-2.024V323.807z"/>
	<path fill="#F7941E" d="M257.915,328.266v-8.531h2.988c1.035,0,1.82,0.198,2.355,0.595s0.803,0.978,0.803,1.743
		c0,0.418-0.107,0.786-0.322,1.104s-0.514,0.552-0.896,0.7c0.438,0.109,0.782,0.33,1.034,0.662s0.378,0.738,0.378,1.219
		c0,0.82-0.262,1.441-0.785,1.863s-1.27,0.637-2.238,0.645H257.915z M259.673,323.309h1.301c0.887-0.016,1.33-0.369,1.33-1.061
		c0-0.387-0.112-0.665-0.337-0.835s-0.579-0.255-1.063-0.255h-1.23V323.309z M259.673,324.551v2.303h1.506
		c0.414,0,0.737-0.099,0.97-0.296s0.349-0.47,0.349-0.817c0-0.781-0.404-1.178-1.213-1.189H259.673z"/>
	<path fill="#F7941E" d="M267.331,326.854h3.732v1.412h-5.49v-8.531h1.758V326.854z"/>
	<path fill="#F7941E" d="M277.204,324.557h-3.375v2.297h3.961v1.412h-5.719v-8.531h5.707v1.424h-3.949v2.033h3.375V324.557z"/>
	<path fill="#F7941E" d="M281.118,319.734l2.191,6.188l2.18-6.188h2.309v8.531h-1.764v-2.332l0.176-4.025l-2.303,6.357H282.7
		l-2.297-6.352l0.176,4.02v2.332h-1.758v-8.531H281.118z"/>
	<path fill="#F7941E" d="M293.757,326.027c0-0.332-0.117-0.587-0.352-0.765s-0.656-0.365-1.266-0.563s-1.092-0.392-1.447-0.583
		c-0.969-0.523-1.453-1.229-1.453-2.115c0-0.461,0.13-0.872,0.39-1.233s0.633-0.644,1.119-0.847s1.032-0.305,1.638-0.305
		c0.609,0,1.152,0.11,1.629,0.331s0.847,0.532,1.11,0.935s0.396,0.859,0.396,1.371h-1.758c0-0.391-0.123-0.694-0.369-0.911
		s-0.592-0.325-1.037-0.325c-0.43,0-0.764,0.091-1.002,0.272s-0.357,0.421-0.357,0.718c0,0.277,0.14,0.51,0.419,0.697
		s0.69,0.363,1.233,0.527c1,0.301,1.729,0.674,2.186,1.119s0.686,1,0.686,1.664c0,0.738-0.279,1.317-0.838,1.737
		s-1.311,0.63-2.256,0.63c-0.656,0-1.254-0.12-1.793-0.36s-0.95-0.569-1.233-0.987s-0.425-0.902-0.425-1.453h1.764
		c0,0.941,0.563,1.412,1.688,1.412c0.418,0,0.744-0.085,0.979-0.255S293.757,326.332,293.757,326.027z"/>
	<path fill="#F7941E" d="M304.122,326.027c0-0.332-0.117-0.587-0.352-0.765s-0.656-0.365-1.266-0.563s-1.092-0.392-1.447-0.583
		c-0.969-0.523-1.453-1.229-1.453-2.115c0-0.461,0.13-0.872,0.39-1.233s0.633-0.644,1.119-0.847s1.032-0.305,1.638-0.305
		c0.609,0,1.152,0.11,1.629,0.331s0.847,0.532,1.11,0.935s0.396,0.859,0.396,1.371h-1.758c0-0.391-0.123-0.694-0.369-0.911
		s-0.592-0.325-1.037-0.325c-0.43,0-0.764,0.091-1.002,0.272s-0.357,0.421-0.357,0.718c0,0.277,0.14,0.51,0.419,0.697
		s0.69,0.363,1.233,0.527c1,0.301,1.729,0.674,2.186,1.119s0.686,1,0.686,1.664c0,0.738-0.279,1.317-0.838,1.737
		s-1.311,0.63-2.256,0.63c-0.656,0-1.254-0.12-1.793-0.36s-0.95-0.569-1.233-0.987s-0.425-0.902-0.425-1.453h1.764
		c0,0.941,0.563,1.412,1.688,1.412c0.418,0,0.744-0.085,0.979-0.255S304.122,326.332,304.122,326.027z"/>
	<path fill="#F7941E" d="M314.083,324.193c0,0.84-0.148,1.576-0.445,2.209s-0.722,1.121-1.274,1.465s-1.187,0.516-1.901,0.516
		c-0.707,0-1.338-0.17-1.893-0.51s-0.984-0.825-1.289-1.456s-0.459-1.356-0.463-2.177v-0.422c0-0.84,0.151-1.579,0.454-2.218
		s0.73-1.129,1.283-1.471s1.185-0.513,1.896-0.513s1.343,0.171,1.896,0.513s0.98,0.832,1.283,1.471s0.454,1.376,0.454,2.212V324.193
		z M312.302,323.807c0-0.895-0.16-1.574-0.48-2.039s-0.777-0.697-1.371-0.697c-0.59,0-1.045,0.229-1.365,0.688
		s-0.482,1.132-0.486,2.019v0.416c0,0.871,0.16,1.547,0.48,2.027s0.781,0.721,1.383,0.721c0.59,0,1.043-0.231,1.359-0.694
		s0.477-1.138,0.48-2.024V323.807z"/>
	<path fill="#F7941E" d="M317.118,326.854h3.732v1.412h-5.49v-8.531h1.758V326.854z"/>
	<path fill="#F7941E" d="M323.804,326.15l1.934-6.416h1.957l-2.971,8.531h-1.834l-2.959-8.531h1.951L323.804,326.15z"/>
	<path fill="#F7941E" d="M333.63,324.557h-3.375v2.297h3.961v1.412h-5.719v-8.531h5.707v1.424h-3.949v2.033h3.375V324.557z"/>
	<path fill="#F7941E" d="M335.247,328.266v-8.531h2.625c0.75,0,1.421,0.169,2.013,0.507s1.054,0.818,1.386,1.441
		s0.498,1.331,0.498,2.124v0.393c0,0.793-0.163,1.498-0.489,2.115s-0.786,1.096-1.38,1.436s-1.264,0.512-2.01,0.516H335.247z
		 M337.005,321.158v5.695h0.85c0.688,0,1.213-0.225,1.576-0.674s0.549-1.092,0.557-1.928v-0.451c0-0.867-0.18-1.524-0.539-1.972
		s-0.885-0.671-1.576-0.671H337.005z"/>
</g>
<g>
	<path fill="#F7941E" d="M231.601,230.537c3.012,0,5.361,0.586,7.049,1.758s2.531,2.924,2.531,5.256c0,1.184-0.313,2.241-0.94,3.173
		s-1.538,1.632-2.733,2.101c1.535,0.328,2.687,1.031,3.454,2.109s1.151,2.326,1.151,3.744c0,2.449-0.809,4.304-2.426,5.563
		s-3.908,1.89-6.873,1.89h-12.586v-3.076l2.725-0.527v-18.369l-2.725-0.527v-3.094h2.725H231.601z M228.085,241.26h3.691
		c1.371,0,2.426-0.281,3.164-0.844s1.107-1.383,1.107-2.461c0-1.184-0.372-2.057-1.116-2.619s-1.854-0.844-3.331-0.844h-3.516
		V241.26z M228.085,244.811v7.383h4.729c1.359,0,2.396-0.296,3.111-0.888s1.072-1.468,1.072-2.628c0-1.254-0.305-2.212-0.914-2.874
		s-1.57-0.993-2.883-0.993H228.085z"/>
	<path fill="#F7941E" d="M255.524,230.537c2.906,0,5.186,0.665,6.838,1.995s2.479,3.167,2.479,5.511
		c0,1.289-0.346,2.408-1.037,3.357s-1.705,1.717-3.041,2.303c1.512,0.445,2.599,1.187,3.261,2.224s0.993,2.323,0.993,3.858v1.301
		c0,0.563,0.111,0.999,0.334,1.31s0.592,0.495,1.107,0.554l0.633,0.088v3.094h-2.654c-1.676,0-2.854-0.451-3.533-1.354
		s-1.02-2.068-1.02-3.498v-1.459c0-1.242-0.331-2.218-0.993-2.927s-1.597-1.081-2.804-1.116h-4.201v6.75l2.742,0.527v3.076h-10.6
		v-3.076l2.725-0.527v-18.369l-2.725-0.527v-3.094h2.725H255.524z M251.886,241.822h3.551c1.43,0,2.502-0.305,3.217-0.914
		s1.072-1.488,1.072-2.637s-0.354-2.065-1.063-2.751s-1.755-1.028-3.138-1.028h-3.639V241.822z"/>
	<path fill="#F7941E" d="M268.761,233.631v-3.094h10.6v3.094l-2.742,0.527v18.369l2.742,0.527v3.076h-10.6v-3.076l2.742-0.527
		v-18.369L268.761,233.631z"/>
	<path fill="#F7941E" d="M302.528,253.283c-0.832,0.82-2.045,1.562-3.639,2.224s-3.609,0.993-6.047,0.993
		c-3.457,0-6.27-1.157-8.438-3.472s-3.252-5.323-3.252-9.026v-0.879c0-3.832,1.069-6.949,3.208-9.352s4.931-3.604,8.376-3.604
		c2.004,0,3.835,0.319,5.493,0.958s3.038,1.503,4.14,2.593v5.15h-3.797l-0.721-3.428c-0.469-0.398-1.087-0.718-1.854-0.958
		s-1.649-0.36-2.646-0.36c-2.238,0-3.979,0.826-5.221,2.479s-1.863,3.814-1.863,6.486v0.914c0,2.602,0.609,4.679,1.828,6.231
		s2.977,2.329,5.273,2.329c1.031,0,1.866-0.088,2.505-0.264s1.14-0.381,1.503-0.615v-4.342l-3.656-0.281v-3.604h8.807V253.283z"/>
	<path fill="#F7941E" d="M305.095,233.631v-3.094h10.6v3.094l-2.742,0.527v7.383h10.441v-7.383l-2.742-0.527v-3.094h2.742h5.115
		h2.742v3.094l-2.742,0.527v18.369l2.742,0.527v3.076h-10.6v-3.076l2.742-0.527v-7.031h-10.441v7.031l2.742,0.527v3.076h-10.6
		v-3.076l2.725-0.527v-18.369L305.095,233.631z"/>
	<path fill="#F7941E" d="M355.772,230.537v6.82h-3.938l-0.211-2.865h-4.711v18.035l2.742,0.527v3.076h-10.617v-3.076l2.742-0.527
		v-18.035h-4.693l-0.211,2.865h-3.92v-6.82H355.772z"/>
</g>
<g>
	<path fill="#F7941E" d="M234.686,274.5h-3.814l-0.527-3.41c-0.504-0.504-1.14-0.902-1.907-1.195s-1.673-0.439-2.716-0.439
		c-2.227,0-3.94,0.809-5.142,2.426s-1.802,3.727-1.802,6.328v0.896c0,2.602,0.598,4.717,1.793,6.346s2.883,2.443,5.063,2.443
		c1.008,0,1.931-0.146,2.769-0.439s1.485-0.691,1.942-1.195l0.527-3.41h3.814v5.063c-1.031,1.195-2.347,2.147-3.946,2.856
		s-3.39,1.063-5.37,1.063c-3.434,0-6.246-1.189-8.438-3.568s-3.287-5.432-3.287-9.158v-0.861c0-3.715,1.09-6.768,3.27-9.158
		s4.998-3.586,8.455-3.586c1.98,0,3.768,0.36,5.361,1.081s2.912,1.673,3.955,2.856V274.5z"/>
	<path fill="#F7941E" d="M236.777,288.387l1.828-0.264l7.787-22.254h5.256l7.734,22.254l1.828,0.264v3.076h-8.719v-3.076
		l1.775-0.316l-1.125-3.516h-8.297l-1.125,3.516l1.775,0.316v3.076h-8.719V288.387z M246.059,280.775h5.871l-2.883-9.018h-0.105
		L246.059,280.775z"/>
	<path fill="#F7941E" d="M289.055,265.869v3.094l-2.742,0.527v21.973h-5.115l-10.336-17.227l-0.105,0.018v13.605l2.742,0.527v3.076
		h-10.6v-3.076l2.725-0.527V269.49l-2.725-0.527v-3.094h2.725h5.133l10.336,17.227l0.105-0.018V269.49l-2.742-0.527v-3.094h7.857
		H289.055z"/>
	<path fill="#F7941E" d="M314.104,278.859c0,3.75-1.072,6.85-3.217,9.299s-4.951,3.674-8.42,3.674c-3.457,0-6.249-1.225-8.376-3.674
		s-3.19-5.549-3.19-9.299v-0.387c0-3.727,1.061-6.82,3.182-9.281s4.91-3.691,8.367-3.691c3.469,0,6.278,1.23,8.429,3.691
		s3.226,5.555,3.226,9.281V278.859z M308.988,278.438c0-2.648-0.551-4.799-1.652-6.451s-2.73-2.479-4.887-2.479
		s-3.765,0.82-4.825,2.461s-1.591,3.797-1.591,6.469v0.422c0,2.695,0.536,4.866,1.608,6.513s2.681,2.47,4.825,2.47
		c2.168,0,3.797-0.823,4.887-2.47s1.635-3.817,1.635-6.513V278.438z"/>
	<path fill="#F7941E" d="M328.342,265.869c2.93,0,5.241,0.753,6.935,2.259s2.54,3.478,2.54,5.915c0,2.449-0.847,4.418-2.54,5.906
		s-4.005,2.232-6.935,2.232h-4.324v5.678l2.742,0.527v3.076h-10.6v-3.076l2.725-0.527V269.49l-2.725-0.527v-3.094h2.725H328.342z
		 M324.018,278.227h4.324c1.43,0,2.511-0.39,3.243-1.169s1.099-1.772,1.099-2.979c0-1.23-0.366-2.247-1.099-3.05
		s-1.813-1.204-3.243-1.204h-4.324V278.227z"/>
	<path fill="#F7941E" d="M348.785,268.963l-2.092,0.299l3.973,8.402h0.105l3.973-8.402l-2.074-0.299v-3.094h9.686v3.094l-2.18,0.352
		l-6.961,13.148v5.396l2.742,0.527v3.076h-10.6v-3.076l2.742-0.527v-5.66l-6.838-12.885l-2.162-0.352v-3.094h9.686V268.963z"/>
</g>
<g>
	<path fill="#F7941E" d="M288,102c21.567,0,39.39,16.341,41.738,37.292l-46.447,46.446C262.341,183.39,246,165.567,246,144
		C246,120.841,264.841,102,288,102 M288,90c-29.823,0-54,24.177-54,54s24.177,54,54,54l54-54C342,114.177,317.823,90,288,90L288,90z
		"/>
</g>
<polygon fill="#F7941E" points="324,216 342,216 360,198 360,180 "/>
<polygon fill="#F7941E" points="306,216 288,216 360,144 360,162 "/>
<polygon fill="#F7941E" points="270,216 360,126 360,108 252,216 "/>
<line fill="none" stroke="#F7941E" stroke-width="2" stroke-miterlimit="10" x1="216" y1="306" x2="360" y2="306"/>
<g>
	<path fill="#F7941E" d="M354,78v36.515L258.515,210H222V78H354 M360,72H216v144h45l99-99V72L360,72z"/>
</g>
</svg>
