<?xml version="1.0" encoding="UTF-8" standalone="no"?>
<!-- Generator: Adobe Illustrator 16.0.0, SVG Export Plug-In . SVG Version: 6.00 Build 0)  -->

<svg
   xmlns:dc="http://purl.org/dc/elements/1.1/"
   xmlns:cc="http://creativecommons.org/ns#"
   xmlns:rdf="http://www.w3.org/1999/02/22-rdf-syntax-ns#"
   xmlns:svg="http://www.w3.org/2000/svg"
   xmlns="http://www.w3.org/2000/svg"
   xmlns:sodipodi="http://sodipodi.sourceforge.net/DTD/sodipodi-0.dtd"
   xmlns:inkscape="http://www.inkscape.org/namespaces/inkscape"
   version="1.1"
   id="Layer_1"
   x="0px"
   y="0px"
   width="576px"
   height="432px"
   viewBox="0 0 576 432"
   enable-background="new 0 0 576 432"
   xml:space="preserve"
   inkscape:version="0.48.4 r9939"
   sodipodi:docname="wide-logo.svg"><metadata
     id="metadata3083"><rdf:RDF><cc:Work
         rdf:about=""><dc:format>image/svg+xml</dc:format><dc:type
           rdf:resource="http://purl.org/dc/dcmitype/StillImage" /><dc:title></dc:title></cc:Work></rdf:RDF></metadata><defs
     id="defs3081" /><sodipodi:namedview
     pagecolor="#ffffff"
     bordercolor="#666666"
     borderopacity="1"
     objecttolerance="10"
     gridtolerance="10"
     guidetolerance="10"
     inkscape:pageopacity="0"
     inkscape:pageshadow="2"
     inkscape:window-width="1920"
     inkscape:window-height="1031"
     id="namedview3079"
     showgrid="false"
     inkscape:zoom="2.1944444"
     inkscape:cx="205.97468"
     inkscape:cy="190.05358"
     inkscape:window-x="0"
     inkscape:window-y="25"
     inkscape:window-maximized="1"
     inkscape:current-layer="Layer_1" /><g
     id="g3073"
     inkscape:export-filename="/home/bill/tmp/BrightCanopy.github.io/images/wide-logo.png"
     inkscape:export-xdpi="312.45001"
     inkscape:export-ydpi="312.45001"><g
       transform="matrix(1.159344,0,0,1.3340609,-57.739247,-228.56986)"
       id="g3049"><path
         style="fill:#f7941e"
         inkscape:connector-curvature="0"
         id="path3051"
         d="m 234.686,274.5 h -3.814 l -0.527,-3.41 c -0.504,-0.504 -1.14,-0.902 -1.907,-1.195 -0.767,-0.293 -1.673,-0.439 -2.716,-0.439 -2.227,0 -3.94,0.809 -5.142,2.426 -1.202,1.617 -1.802,3.727 -1.802,6.328 v 0.896 c 0,2.602 0.598,4.717 1.793,6.346 1.195,1.629 2.883,2.443 5.063,2.443 1.008,0 1.931,-0.146 2.769,-0.439 0.838,-0.293 1.485,-0.691 1.942,-1.195 l 0.527,-3.41 h 3.814 v 5.063 c -1.031,1.195 -2.347,2.147 -3.946,2.856 -1.599,0.709 -3.39,1.063 -5.37,1.063 -3.434,0 -6.246,-1.189 -8.438,-3.568 -2.192,-2.379 -3.287,-5.432 -3.287,-9.158 v -0.861 c 0,-3.715 1.09,-6.768 3.27,-9.158 2.18,-2.39 4.998,-3.586 8.455,-3.586 1.98,0 3.768,0.36 5.361,1.081 1.593,0.721 2.912,1.673 3.955,2.856 v 5.061 z" /><path
         style="fill:#f7941e"
         inkscape:connector-curvature="0"
         id="path3053"
         d="m 236.777,288.387 1.828,-0.264 7.787,-22.254 h 5.256 l 7.734,22.254 1.828,0.264 v 3.076 h -8.719 v -3.076 l 1.775,-0.316 -1.125,-3.516 h -8.297 l -1.125,3.516 1.775,0.316 v 3.076 h -8.719 v -3.076 z m 9.282,-7.612 h 5.871 l -2.883,-9.018 h -0.105 l -2.883,9.018 z" /><path
         style="fill:#f7941e"
         inkscape:connector-curvature="0"
         id="path3055"
         d="m 289.055,265.869 v 3.094 l -2.742,0.527 v 21.973 h -5.115 l -10.336,-17.227 -0.105,0.018 v 13.605 l 2.742,0.527 v 3.076 h -10.6 v -3.076 l 2.725,-0.527 V 269.49 l -2.725,-0.527 v -3.094 h 2.725 5.133 l 10.336,17.227 0.105,-0.018 V 269.49 l -2.742,-0.527 v -3.094 h 7.857 2.742 z" /><path
         style="fill:#f7941e"
         inkscape:connector-curvature="0"
         id="path3057"
         d="m 314.104,278.859 c 0,3.75 -1.072,6.85 -3.217,9.299 -2.145,2.449 -4.951,3.674 -8.42,3.674 -3.457,0 -6.249,-1.225 -8.376,-3.674 -2.127,-2.449 -3.19,-5.549 -3.19,-9.299 v -0.387 c 0,-3.727 1.061,-6.82 3.182,-9.281 2.121,-2.461 4.91,-3.691 8.367,-3.691 3.469,0 6.278,1.23 8.429,3.691 2.151,2.461 3.226,5.555 3.226,9.281 v 0.387 z m -5.116,-0.421 c 0,-2.648 -0.551,-4.799 -1.652,-6.451 -1.101,-1.652 -2.73,-2.479 -4.887,-2.479 -2.157,0 -3.765,0.82 -4.825,2.461 -1.06,1.641 -1.591,3.797 -1.591,6.469 v 0.422 c 0,2.695 0.536,4.866 1.608,6.513 1.072,1.647 2.681,2.47 4.825,2.47 2.168,0 3.797,-0.823 4.887,-2.47 1.09,-1.647 1.635,-3.817 1.635,-6.513 v -0.422 z" /><path
         style="fill:#f7941e"
         inkscape:connector-curvature="0"
         id="path3059"
         d="m 328.342,265.869 c 2.93,0 5.241,0.753 6.935,2.259 1.694,1.506 2.54,3.478 2.54,5.915 0,2.449 -0.847,4.418 -2.54,5.906 -1.693,1.488 -4.005,2.232 -6.935,2.232 h -4.324 v 5.678 l 2.742,0.527 v 3.076 h -10.6 v -3.076 l 2.725,-0.527 V 269.49 l -2.725,-0.527 v -3.094 h 2.725 9.457 z m -4.324,12.358 h 4.324 c 1.43,0 2.511,-0.39 3.243,-1.169 0.732,-0.779 1.099,-1.772 1.099,-2.979 0,-1.23 -0.366,-2.247 -1.099,-3.05 -0.733,-0.803 -1.813,-1.204 -3.243,-1.204 h -4.324 v 8.402 z" /><path
         style="fill:#f7941e"
         inkscape:connector-curvature="0"
         id="path3061"
         d="m 348.785,268.963 -2.092,0.299 3.973,8.402 h 0.105 l 3.973,-8.402 -2.074,-0.299 v -3.094 h 9.686 v 3.094 l -2.18,0.352 -6.961,13.148 v 5.396 l 2.742,0.527 v 3.076 h -10.6 v -3.076 l 2.742,-0.527 v -5.66 l -6.838,-12.885 -2.162,-0.352 v -3.094 h 9.686 v 3.095 z" /></g><line
       style="fill:none;stroke:#f7941e;stroke-width:2.48727608;stroke-miterlimit:10"
       id="line3073"
       y2="179.65277"
       x2="359.6246"
       y1="179.65277"
       x1="192.67906"
       stroke-miterlimit="10" /><g
       inkscape:export-ydpi="312.5"
       inkscape:export-xdpi="312.5"
       inkscape:export-filename="/home/bill/tmp/BrightCanopy.github.io/images/wide-logo.png"
       id="g3117"><g
         id="g3063"
         inkscape:export-filename="/home/bill/tmp/BrightCanopy.github.io/images/square-logo.png"
         inkscape:export-xdpi="312.5"
         inkscape:export-ydpi="312.5"
         transform="translate(-180,0)"><path
           d="m 288,102 c 21.567,0 39.39,16.341 41.738,37.292 l -46.447,46.446 C 262.341,183.39 246,165.567 246,144 c 0,-23.159 18.841,-42 42,-42 m 0,-12 c -29.823,0 -54,24.177 -54,54 0,29.823 24.177,54 54,54 l 54,-54 c 0,-29.823 -24.177,-54 -54,-54 l 0,0 z"
           id="path3065"
           inkscape:connector-curvature="0"
           style="fill:#f7941e" /></g><polygon
         points="342,216 360,198 360,180 324,216 "
         id="polygon3067"
         inkscape:export-filename="/home/bill/tmp/BrightCanopy.github.io/images/square-logo.png"
         inkscape:export-xdpi="312.5"
         inkscape:export-ydpi="312.5"
         transform="translate(-180,0)"
         style="fill:#f7941e" /><polygon
         points="288,216 360,144 360,162 306,216 "
         id="polygon3069"
         inkscape:export-filename="/home/bill/tmp/BrightCanopy.github.io/images/square-logo.png"
         inkscape:export-xdpi="312.5"
         inkscape:export-ydpi="312.5"
         transform="translate(-180,0)"
         style="fill:#f7941e" /><polygon
         points="360,126 360,108 252,216 270,216 "
         id="polygon3071"
         inkscape:export-filename="/home/bill/tmp/BrightCanopy.github.io/images/square-logo.png"
         inkscape:export-xdpi="312.5"
         inkscape:export-ydpi="312.5"
         transform="translate(-180,0)"
         style="fill:#f7941e" /><g
         id="g3075"
         inkscape:export-filename="/home/bill/tmp/BrightCanopy.github.io/images/square-logo.png"
         inkscape:export-xdpi="312.5"
         inkscape:export-ydpi="312.5"
         transform="translate(-180,0)"><path
           d="m 354,78 v 36.515 L 258.515,210 H 222 V 78 h 132 m 6,-6 H 216 v 144 h 45 l 99,-99 V 72 l 0,0 z"
           id="path3077"
           inkscape:connector-curvature="0"
           style="fill:#f7941e" /></g></g><g
       id="g3062"><g
         id="g3035"
         transform="matrix(1.159344,0,0,1.3340609,-57.739247,-228.56986)"><path
           d="m 231.601,230.537 c 3.012,0 5.361,0.586 7.049,1.758 1.688,1.172 2.531,2.924 2.531,5.256 0,1.184 -0.313,2.241 -0.94,3.173 -0.627,0.932 -1.538,1.632 -2.733,2.101 1.535,0.328 2.687,1.031 3.454,2.109 0.767,1.078 1.151,2.326 1.151,3.744 0,2.449 -0.809,4.304 -2.426,5.563 -1.617,1.259 -3.908,1.89 -6.873,1.89 h -12.586 v -3.076 l 2.725,-0.527 v -18.369 l -2.725,-0.527 v -3.094 h 2.725 8.648 z m -3.516,10.723 h 3.691 c 1.371,0 2.426,-0.281 3.164,-0.844 0.738,-0.563 1.107,-1.383 1.107,-2.461 0,-1.184 -0.372,-2.057 -1.116,-2.619 -0.744,-0.562 -1.854,-0.844 -3.331,-0.844 h -3.516 v 6.768 z m 0,3.551 v 7.383 h 4.729 c 1.359,0 2.396,-0.296 3.111,-0.888 0.715,-0.592 1.072,-1.468 1.072,-2.628 0,-1.254 -0.305,-2.212 -0.914,-2.874 -0.609,-0.662 -1.57,-0.993 -2.883,-0.993 h -5.115 z"
           id="path3037"
           inkscape:connector-curvature="0"
           style="fill:#f7941e" /><path
           d="m 255.524,230.537 c 2.906,0 5.186,0.665 6.838,1.995 1.652,1.33 2.479,3.167 2.479,5.511 0,1.289 -0.346,2.408 -1.037,3.357 -0.691,0.949 -1.705,1.717 -3.041,2.303 1.512,0.445 2.599,1.187 3.261,2.224 0.662,1.037 0.993,2.323 0.993,3.858 v 1.301 c 0,0.563 0.111,0.999 0.334,1.31 0.223,0.311 0.592,0.495 1.107,0.554 l 0.633,0.088 v 3.094 h -2.654 c -1.676,0 -2.854,-0.451 -3.533,-1.354 -0.679,-0.903 -1.02,-2.068 -1.02,-3.498 v -1.459 c 0,-1.242 -0.331,-2.218 -0.993,-2.927 -0.662,-0.709 -1.597,-1.081 -2.804,-1.116 h -4.201 v 6.75 l 2.742,0.527 v 3.076 h -10.6 v -3.076 l 2.725,-0.527 v -18.369 l -2.725,-0.527 v -3.094 h 2.725 8.771 z m -3.638,11.285 h 3.551 c 1.43,0 2.502,-0.305 3.217,-0.914 0.715,-0.609 1.072,-1.488 1.072,-2.637 0,-1.149 -0.354,-2.065 -1.063,-2.751 -0.709,-0.686 -1.755,-1.028 -3.138,-1.028 h -3.639 v 7.33 z"
           id="path3039"
           inkscape:connector-curvature="0"
           style="fill:#f7941e" /><path
           d="m 268.761,233.631 v -3.094 h 10.6 v 3.094 l -2.742,0.527 v 18.369 l 2.742,0.527 v 3.076 h -10.6 v -3.076 l 2.742,-0.527 v -18.369 l -2.742,-0.527 z"
           id="path3041"
           inkscape:connector-curvature="0"
           style="fill:#f7941e" /><path
           d="m 302.528,253.283 c -0.832,0.82 -2.045,1.562 -3.639,2.224 -1.594,0.662 -3.609,0.993 -6.047,0.993 -3.457,0 -6.27,-1.157 -8.438,-3.472 -2.168,-2.315 -3.252,-5.323 -3.252,-9.026 v -0.879 c 0,-3.832 1.069,-6.949 3.208,-9.352 2.139,-2.403 4.931,-3.604 8.376,-3.604 2.004,0 3.835,0.319 5.493,0.958 1.658,0.639 3.038,1.503 4.14,2.593 v 5.15 h -3.797 l -0.721,-3.428 c -0.469,-0.398 -1.087,-0.718 -1.854,-0.958 -0.767,-0.24 -1.649,-0.36 -2.646,-0.36 -2.238,0 -3.979,0.826 -5.221,2.479 -1.242,1.653 -1.863,3.814 -1.863,6.486 v 0.914 c 0,2.602 0.609,4.679 1.828,6.231 1.219,1.552 2.977,2.329 5.273,2.329 1.031,0 1.866,-0.088 2.505,-0.264 0.639,-0.176 1.14,-0.381 1.503,-0.615 v -4.342 l -3.656,-0.281 v -3.604 h 8.807 v 9.828 z"
           id="path3043"
           inkscape:connector-curvature="0"
           style="fill:#f7941e" /><path
           d="m 305.095,233.631 v -3.094 h 10.6 v 3.094 l -2.742,0.527 v 7.383 h 10.441 v -7.383 l -2.742,-0.527 v -3.094 h 2.742 5.115 2.742 v 3.094 l -2.742,0.527 v 18.369 l 2.742,0.527 v 3.076 h -10.6 v -3.076 l 2.742,-0.527 v -7.031 h -10.441 v 7.031 l 2.742,0.527 v 3.076 h -10.6 v -3.076 l 2.725,-0.527 v -18.369 l -2.724,-0.527 z"
           id="path3045"
           inkscape:connector-curvature="0"
           style="fill:#f7941e" /><path
           d="m 355.772,230.537 v 6.82 h -3.938 l -0.211,-2.865 h -4.711 v 18.035 l 2.742,0.527 v 3.076 h -10.617 v -3.076 l 2.742,-0.527 v -18.035 h -4.693 l -0.211,2.865 h -3.92 v -6.82 h 22.817 z"
           id="path3047"
           inkscape:connector-curvature="0"
           style="fill:#f7941e" /></g><text
         xml:space="preserve"
         style="font-size:16px;font-style:normal;font-variant:normal;font-weight:500;font-stretch:normal;text-align:start;line-height:125%;letter-spacing:0px;word-spacing:0px;writing-mode:lr-tb;text-anchor:start;fill:#f7941e;fill-opacity:1;stroke:none;font-family:Roboto;-inkscape-font-specification:Roboto Medium"
         x="227.59494"
         y="209.16455"
         id="text3028"
         sodipodi:linespacing="125%"><tspan
           sodipodi:role="line"
           id="tspan3030"
           x="227.59494"
           y="209.16455"
           style="font-size:16px;font-style:normal;font-variant:normal;font-weight:500;font-stretch:normal;text-align:start;line-height:125%;writing-mode:lr-tb;text-anchor:start;fill:#f7941e;fill-opacity:1;font-family:Roboto;-inkscape-font-specification:Roboto Medium">SL FREEDOM</tspan></text>
</g></g></svg>